<svg width="36" height="29" viewBox="0 0 36 29" fill="none" xmlns="http://www.w3.org/2000/svg">
<rect width="35.2733" height="29.0025" rx="2.35" stroke="#15284F"/>
<path d="M25.1949 9.52961L14.0313 22.04C13.9989 22.0763 13.9604 22.1052 13.918 22.1248C13.8757 22.1445 13.8303 22.1546 13.7844 22.1546C13.7386 22.1546 13.6932 22.1445 13.6508 22.1248C13.6085 22.1052 13.57 22.0763 13.5376 22.04L8.65351 16.5667C8.58805 16.4933 8.55127 16.3938 8.55127 16.2901C8.55127 16.1864 8.58805 16.0869 8.65351 16.0135C8.71897 15.9401 8.80775 15.8989 8.90033 15.8989C8.99291 15.8989 9.08169 15.9401 9.14715 16.0135L13.7844 21.2102L24.7013 8.97641C24.7668 8.90306 24.8555 8.86184 24.9481 8.86184C25.0407 8.86184 25.1295 8.90306 25.1949 8.97641C25.2604 9.04977 25.2972 9.14927 25.2972 9.25301C25.2972 9.35676 25.2604 9.45625 25.1949 9.52961Z" fill="#3E5297" stroke="#F9FAFC" stroke-width="1.17578"/>
<rect x="0.783851" y="0.783851" width="33.7056" height="27.4348" rx="1.5677" stroke="#F9FAFC" stroke-width="1.5677"/>
</svg>
