<svg width="36" height="30" viewBox="0 0 36 30" fill="none" xmlns="http://www.w3.org/2000/svg">
<rect y="0.856995" width="35.2733" height="29.0025" rx="2.35" stroke="#15284F"/>
<path d="M27.6888 7.96976L16.5252 20.4801C16.4928 20.5165 16.4543 20.5453 16.4119 20.565C16.3696 20.5847 16.3242 20.5948 16.2783 20.5948C16.2325 20.5948 16.1871 20.5847 16.1447 20.565C16.1024 20.5453 16.0639 20.5165 16.0315 20.4801L11.1474 15.0069C11.0819 14.9335 11.0452 14.834 11.0452 14.7303C11.0452 14.6265 11.0819 14.527 11.1474 14.4537C11.2129 14.3803 11.3017 14.3391 11.3942 14.3391C11.4868 14.3391 11.5756 14.3803 11.641 14.4537L16.2783 19.6504L27.1952 7.41657C27.2607 7.34321 27.3494 7.302 27.442 7.302C27.5346 7.302 27.6234 7.34321 27.6888 7.41657C27.7543 7.48993 27.7911 7.58942 27.7911 7.69317C27.7911 7.79691 27.7543 7.89641 27.6888 7.96976Z" fill="#3E5297" stroke="#F9FAFC" stroke-width="1.17578"/>
<rect x="0.783851" y="1.64085" width="33.7056" height="27.4348" rx="1.5677" stroke="#F9FAFC" stroke-width="1.5677"/>
</svg>
