<svg width="36" height="30" viewBox="0 0 36 30" fill="none" xmlns="http://www.w3.org/2000/svg">
<rect y="0.856995" width="35.2733" height="29.0025" rx="2.35" stroke="#15284F"/>
<path d="M26.9762 7.96976L15.8125 20.4801C15.7801 20.5165 15.7416 20.5453 15.6993 20.565C15.6569 20.5847 15.6115 20.5948 15.5657 20.5948C15.5198 20.5948 15.4744 20.5847 15.4321 20.565C15.3897 20.5453 15.3513 20.5165 15.3189 20.4801L10.4348 15.0069C10.3693 14.9335 10.3325 14.834 10.3325 14.7303C10.3325 14.6265 10.3693 14.527 10.4348 14.4537C10.5002 14.3803 10.589 14.3391 10.6816 14.3391C10.7742 14.3391 10.8629 14.3803 10.9284 14.4537L15.5657 19.6504L26.4825 7.41657C26.548 7.34321 26.6368 7.302 26.7294 7.302C26.8219 7.302 26.9107 7.34321 26.9762 7.41657C27.0417 7.48993 27.0784 7.58942 27.0784 7.69317C27.0784 7.79691 27.0417 7.89641 26.9762 7.96976Z" fill="#3E5297" stroke="#F9FAFC" stroke-width="1.17578"/>
<rect x="0.783851" y="1.64085" width="33.7056" height="27.4348" rx="1.5677" stroke="#F9FAFC" stroke-width="1.5677"/>
</svg>
