<svg width="41" height="41" viewBox="0 0 41 41" fill="none" xmlns="http://www.w3.org/2000/svg">
<path d="M28.97 15.2249C32.595 15.2449 34.5583 15.4065 35.8383 16.6865C37.3033 18.1515 37.3033 20.5082 37.3033 25.2215V26.8882C37.3033 31.6032 37.3033 33.9599 35.8383 35.4249C34.375 36.8882 32.0166 36.8882 27.3033 36.8882H13.97C9.25664 36.8882 6.8983 36.8882 5.43497 35.4249C3.96997 33.9582 3.96997 31.6032 3.96997 26.8882V25.2215C3.96997 20.5082 3.96997 18.1515 5.43497 16.6865C6.71497 15.4065 8.6783 15.2449 12.3033 15.2249" stroke="#F9FAFC" stroke-width="1.9" stroke-linecap="round"/>
<path d="M20.6367 3.55481V25.2215M20.6367 25.2215L15.6367 19.3881M20.6367 25.2215L25.6367 19.3881" stroke="#F9FAFC" stroke-width="1.9" stroke-linecap="round" stroke-linejoin="round"/>
</svg>
