<svg width="45" height="35" viewBox="0 0 45 35" fill="none" xmlns="http://www.w3.org/2000/svg">
<path d="M9.85835 17.1538C9.16243 16.4625 8.61105 15.6396 8.23635 14.733C7.86165 13.8265 7.67112 12.8544 7.67585 11.8735C7.67585 9.88961 8.46396 7.98695 9.8668 6.58411C11.2696 5.18128 13.1723 4.39317 15.1562 4.39317C17.9371 4.39317 20.366 5.90684 21.6509 8.15975H23.6222C24.2754 7.01403 25.2205 6.06188 26.3614 5.40025C27.5022 4.73861 28.7981 4.39113 30.1169 4.39317C32.1008 4.39317 34.0035 5.18128 35.4063 6.58411C36.8091 7.98695 37.5972 9.88961 37.5972 11.8735C37.5972 13.9328 36.7172 15.8337 35.4147 17.1538L22.6365 29.9144L9.85835 17.1538ZM36.6468 18.4034C38.3189 16.7137 39.3573 14.4256 39.3573 11.8735C39.3573 9.4228 38.3838 7.07246 36.6509 5.33955C34.9179 3.60663 32.5676 2.63309 30.1169 2.63309C27.0368 2.63309 24.3086 4.12916 22.6365 6.45247C21.7831 5.26705 20.6593 4.30221 19.3584 3.63797C18.0574 2.97373 16.6169 2.62925 15.1562 2.63309C12.7055 2.63309 10.3551 3.60663 8.62223 5.33955C6.88931 7.07246 5.91577 9.4228 5.91577 11.8735C5.91577 14.4256 6.95422 16.7137 8.6263 18.4034L22.6365 32.4137L36.6468 18.4034Z" fill="#F9FAFC"/>
</svg>
