<svg width="35" height="31" viewBox="0 0 35 31" fill="none" xmlns="http://www.w3.org/2000/svg">
<path d="M4.85835 15.1538C4.16243 14.4625 3.61105 13.6396 3.23635 12.733C2.86165 11.8265 2.67112 10.8544 2.67585 9.87352C2.67585 7.88961 3.46396 5.98695 4.8668 4.58411C6.26963 3.18128 8.17229 2.39317 10.1562 2.39317C12.9371 2.39317 15.366 3.90684 16.6509 6.15975H18.6222C19.2754 5.01403 20.2205 4.06188 21.3614 3.40025C22.5022 2.73861 23.7981 2.39113 25.1169 2.39317C27.1008 2.39317 29.0035 3.18128 30.4063 4.58411C31.8091 5.98695 32.5972 7.88961 32.5972 9.87352C32.5972 11.9328 31.7172 13.8337 30.4147 15.1538L17.6365 27.9144L4.85835 15.1538ZM31.6468 16.4034C33.3189 14.7137 34.3573 12.4256 34.3573 9.87352C34.3573 7.4228 33.3838 5.07246 31.6509 3.33955C29.9179 1.60663 27.5676 0.633088 25.1169 0.633088C22.0368 0.633088 19.3086 2.12916 17.6365 4.45247C16.7831 3.26705 15.6593 2.30221 14.3584 1.63797C13.0574 0.973732 11.6169 0.629247 10.1562 0.633088C7.70549 0.633088 5.35515 1.60663 3.62223 3.33955C1.88931 5.07246 0.915771 7.4228 0.915771 9.87352C0.915771 12.4256 1.95422 14.7137 3.6263 16.4034L17.6365 30.4137L31.6468 16.4034Z" fill="#F9FAFC"/>
</svg>
