<svg width="36" height="40" viewBox="0 0 36 40" fill="none" xmlns="http://www.w3.org/2000/svg">
<path d="M6.46993 36.9766C4.22782 36.9766 2.41016 35.1114 2.41016 32.8083V16.0554C2.41016 14.7897 2.97163 13.5906 3.93281 12.8007L15.0996 3.63052C15.813 3.0397 16.7103 2.7164 17.6367 2.7164C18.563 2.7164 19.4603 3.0397 20.1738 3.63052L31.3386 12.8007C32.3017 13.5906 32.8632 14.7897 32.8632 16.0554V32.8083C32.8632 35.1114 31.0455 36.9766 28.8034 36.9766H6.46993Z" stroke="#F9FAFC" stroke-width="1.63141" stroke-linecap="round" stroke-linejoin="round"/>
<path d="M12.8784 36.9766V26.5084C12.8784 25.4988 13.2795 24.5306 13.9934 23.8167C14.7072 23.1028 15.6755 22.7018 16.685 22.7018H18.5884C19.5979 22.7018 20.5662 23.1028 21.2801 23.8167C21.9939 24.5306 22.395 25.4988 22.395 26.5084V36.9766" stroke="#F9FAFC" stroke-width="1.63141" stroke-linecap="round" stroke-linejoin="round"/>
</svg>
