<svg width="38" height="38" viewBox="0 0 38 38" fill="none" xmlns="http://www.w3.org/2000/svg">
<path d="M24.7113 32.7504C27.2634 33.015 30.7078 33.8333 32.5385 31.4982C33.5297 30.2337 33.5297 28.306 33.5297 24.4524V13.5423C33.5297 9.68696 33.5297 7.76104 32.5385 6.49649C30.7078 4.1614 27.2651 4.97974 24.7113 5.24429M19.4203 20.761V17.2337M31.766 32.6252H37.057M1.78369 33.1067H7.07468M5.31102 14.0661C5.31102 10.4101 5.31102 8.58114 5.94241 7.0979C6.45394 5.87399 7.28475 4.80989 8.34805 4.01678C9.60202 3.08909 11.2863 2.76105 14.6532 2.10673C18.154 1.42772 19.9036 1.08733 21.2669 1.63054C22.4178 2.09813 23.3721 2.94843 23.9688 4.03794C24.7113 5.37304 24.7113 7.27427 24.7113 11.0785V26.9197C24.7113 30.7222 24.7113 32.6234 23.9688 33.9567C23.3727 35.0476 22.4183 35.8992 21.2669 36.3677C19.9036 36.9091 18.154 36.5687 14.6532 35.8897C11.2846 35.2354 9.60202 34.9074 8.34805 33.9797C7.28475 33.1866 6.45394 32.1225 5.94241 30.8986C5.31102 29.4118 5.31102 27.5864 5.31102 23.9286V14.0661Z" stroke="#F9FAFC" stroke-width="1.89528" stroke-linecap="round" stroke-linejoin="round"/>
</svg>
