<svg width="38" height="39" viewBox="0 0 38 39" fill="none" xmlns="http://www.w3.org/2000/svg">
<path d="M18.928 11.199C17.2913 11.199 15.6914 11.6843 14.3306 12.5936C12.9698 13.5029 11.9091 14.7953 11.2828 16.3073C10.6565 17.8194 10.4926 19.4833 10.8119 21.0885C11.1312 22.6937 11.9193 24.1682 13.0766 25.3255C14.2339 26.4828 15.7084 27.2709 17.3136 27.5902C18.9188 27.9095 20.5827 27.7456 22.0948 27.1193C23.6068 26.493 24.8992 25.4323 25.8085 24.0715C26.7178 22.7107 27.2031 21.1108 27.2031 19.4741C27.2006 17.2802 26.328 15.1768 24.7767 13.6255C23.2253 12.0741 21.1219 11.2015 18.928 11.199ZM18.928 26.2446C17.5889 26.2446 16.2799 25.8476 15.1665 25.1036C14.0531 24.3596 13.1853 23.3022 12.6728 22.0651C12.1604 20.8279 12.0263 19.4666 12.2876 18.1532C12.5488 16.8399 13.1936 15.6335 14.1405 14.6866C15.0874 13.7397 16.2938 13.0949 17.6071 12.8336C18.9205 12.5724 20.2818 12.7065 21.519 13.2189C22.7561 13.7314 23.8136 14.5992 24.5575 15.7126C25.3015 16.826 25.6986 18.135 25.6986 19.4741C25.6986 21.2698 24.9852 22.9919 23.7155 24.2616C22.4458 25.5313 20.7237 26.2446 18.928 26.2446ZM34.7128 20.1342C34.7291 19.6941 34.7291 19.2553 34.7128 18.8177L37.6899 15.0958C37.7638 15.0039 37.8151 14.896 37.8396 14.7807C37.8641 14.6654 37.8612 14.5459 37.831 14.4319C37.3855 12.766 36.7208 11.1666 35.8544 9.67561C35.7963 9.57312 35.7151 9.48569 35.6171 9.42036C35.5191 9.35503 35.4071 9.31362 35.2902 9.29947L30.5527 8.77287C30.2547 8.45046 29.9441 8.13991 29.6217 7.84192L29.097 3.11194C29.0828 2.99501 29.0414 2.88305 28.9761 2.78505C28.9108 2.68705 28.8233 2.60576 28.7209 2.54773C27.2317 1.68333 25.635 1.01935 23.9721 0.572985C23.8582 0.542574 23.7389 0.539325 23.6235 0.563498C23.5082 0.587672 23.4002 0.638592 23.3082 0.712157L19.5881 3.68932C19.1481 3.67176 18.7092 3.67176 18.2716 3.68932L14.546 0.712157C14.4541 0.63827 14.3461 0.587008 14.2308 0.562507C14.1155 0.538006 13.996 0.540951 13.8821 0.571104C12.2175 1.01691 10.6193 1.68158 9.12953 2.54773C9.02704 2.60576 8.93961 2.68705 8.87428 2.78505C8.80895 2.88305 8.76754 2.99501 8.75339 3.11194L8.22679 7.84944C7.90438 8.14743 7.59383 8.45799 7.29584 8.78039L2.56586 9.30511C2.44893 9.31926 2.33697 9.36067 2.23897 9.426C2.14097 9.49134 2.05968 9.57876 2.00165 9.68125C1.13725 11.1704 0.473264 12.7671 0.0269036 14.43C-0.00350729 14.5439 -0.00675679 14.6632 0.0174166 14.7786C0.04159 14.8939 0.0925104 15.0019 0.166076 15.0939L3.14324 18.814C3.12568 19.2541 3.12568 19.6929 3.14324 20.1305L0.166076 23.8561C0.0921885 23.948 0.0409268 24.056 0.0164255 24.1713C-0.00807585 24.2866 -0.00513097 24.4061 0.0250228 24.52C0.470827 26.1847 1.1355 27.7828 2.00165 29.2726C2.05968 29.3751 2.14097 29.4625 2.23897 29.5278C2.33697 29.5932 2.44893 29.6346 2.56586 29.6487L7.30336 30.1753C7.60051 30.4969 7.91271 30.8091 8.23431 31.1063L8.76091 35.8456C8.77506 35.9626 8.81647 36.0745 8.8818 36.1725C8.94713 36.2705 9.03456 36.3518 9.13705 36.4099C10.6283 37.2721 12.227 37.9336 13.8915 38.3771C14.0053 38.4075 14.1247 38.4107 14.24 38.3866C14.3553 38.3624 14.4633 38.3115 14.5554 38.2379L18.2754 35.2607C18.7155 35.2771 19.1543 35.2771 19.5919 35.2607L23.3138 38.2379C23.4472 38.3449 23.613 38.4033 23.784 38.4034C23.8475 38.4032 23.9107 38.395 23.9721 38.379C25.6374 37.9327 27.2362 37.2674 28.7265 36.4005C28.829 36.3424 28.9164 36.2611 28.9817 36.1631C29.0471 36.0651 29.0885 35.9532 29.1026 35.8362L29.6292 31.0987C29.9508 30.8016 30.263 30.4894 30.5602 30.1678L35.2996 29.6412C35.4165 29.627 35.5285 29.5856 35.6265 29.5203C35.7245 29.455 35.8057 29.3675 35.8638 29.2651C36.726 27.7738 37.3875 26.1751 37.831 24.5106C37.8614 24.3968 37.8647 24.2774 37.8405 24.1621C37.8163 24.0468 37.7654 23.9388 37.6918 23.8467L34.7128 20.1342ZM34.7448 28.1893L30.1051 28.7046C29.92 28.7251 29.7491 28.8136 29.6255 28.9529C29.2441 29.3832 28.8372 29.7902 28.4068 30.1716C28.2675 30.2952 28.1791 30.4661 28.1585 30.6511L27.6432 35.289C26.4729 35.9358 25.234 36.4499 23.9495 36.8217L20.3047 33.9048C20.1711 33.7984 20.0053 33.7407 19.8345 33.7411H19.7894C19.2157 33.7767 18.6403 33.7767 18.0666 33.7411C17.8805 33.7299 17.6969 33.7882 17.5513 33.9048L13.9084 36.8199C12.6234 36.4496 11.3838 35.9368 10.2128 35.2908L9.6975 30.6511C9.67696 30.4661 9.5885 30.2952 9.44925 30.1716C9.01887 29.7902 8.6119 29.3832 8.23055 28.9529C8.10692 28.8136 7.93604 28.7251 7.75097 28.7046L3.11314 28.1893C2.46631 27.019 1.9522 25.78 1.58037 24.4956L4.49734 20.8508C4.61386 20.7052 4.67217 20.5216 4.66097 20.3355C4.62722 19.7617 4.62722 19.1865 4.66097 18.6127C4.67217 18.4266 4.61386 18.243 4.49734 18.0974L1.58225 14.4545C1.95245 13.1694 2.46532 11.9299 3.11126 10.7589L7.75097 10.2436C7.93604 10.223 8.10692 10.1346 8.23055 9.99533C8.6119 9.56495 9.01887 9.15798 9.44925 8.77663C9.5885 8.653 9.67696 8.48213 9.6975 8.29705L10.2128 3.65923C11.3832 3.01239 12.6221 2.49828 13.9065 2.12645L17.5513 5.04343C17.6969 5.15994 17.8805 5.21825 18.0666 5.20705C18.6403 5.17147 19.2157 5.17147 19.7894 5.20705C19.9755 5.21825 20.1591 5.15994 20.3047 5.04343L23.9476 2.12833C25.2327 2.49853 26.4722 3.0114 27.6432 3.65735L28.1585 8.29705C28.1791 8.48213 28.2675 8.653 28.4068 8.77663C28.8372 9.15798 29.2441 9.56495 29.6255 9.99533C29.7491 10.1346 29.92 10.223 30.1051 10.2436L34.7429 10.7589C35.3897 11.9292 35.9038 13.1681 36.2757 14.4526L33.3587 18.0974C33.2422 18.243 33.1839 18.4266 33.1951 18.6127C33.2288 19.1865 33.2288 19.7617 33.1951 20.3355C33.1839 20.5216 33.2422 20.7052 33.3587 20.8508L36.2738 24.4937C35.9036 25.7787 35.3907 27.0183 34.7448 28.1893Z" fill="#F9FAFC"/>
</svg>
