<svg width="36" height="36" viewBox="0 0 36 36" fill="none" xmlns="http://www.w3.org/2000/svg">
<path d="M13.5663 8.8028C15.3777 5.55455 16.2827 3.93042 17.6366 3.93042C18.9905 3.93042 19.8955 5.55455 21.7069 8.8028L22.1759 9.64346C22.6905 10.567 22.9479 11.0288 23.3482 11.3334C23.7485 11.6379 24.2489 11.7508 25.2497 11.9767L26.159 12.1826C29.676 12.9789 31.4331 13.3764 31.852 14.7217C32.2695 16.0656 31.0714 17.4682 28.6738 20.2718L28.0533 20.9966C27.3728 21.793 27.0311 22.1919 26.8781 22.6837C26.7251 23.1769 26.7766 23.7088 26.8795 24.771L26.9739 25.7389C27.3356 29.4804 27.5172 31.3504 26.422 32.1811C25.3269 33.0117 23.6799 32.254 20.3887 30.7385L19.5352 30.3468C18.6002 29.915 18.1327 29.7006 17.6366 29.7006C17.1405 29.7006 16.673 29.915 15.738 30.3468L14.8859 30.7385C11.5933 32.254 9.94629 33.0117 8.85258 32.1825C7.756 31.3504 7.93757 29.4804 8.29929 25.7389L8.39365 24.7724C8.49658 23.7088 8.54805 23.1769 8.39365 22.6851C8.2421 22.1919 7.9004 21.793 7.21987 20.9981L6.59939 20.2718C4.20179 17.4696 3.00371 16.0671 3.42118 14.7217C3.83865 13.3764 5.5986 12.9775 9.11564 12.1826L10.0249 11.9767C11.0243 11.7508 11.5232 11.6379 11.925 11.3334C12.3267 11.0288 12.5826 10.567 13.0973 9.64346L13.5663 8.8028Z" stroke="#F9FAFC" stroke-width="1.53638"/>
</svg>
