<svg width="38" height="38" viewBox="0 0 38 38" fill="none" xmlns="http://www.w3.org/2000/svg">
<path d="M18.6365 35.571C27.7501 35.571 35.1382 28.183 35.1382 19.0693C35.1382 9.95569 27.7501 2.56763 18.6365 2.56763C9.52283 2.56763 2.13477 9.95569 2.13477 19.0693C2.13477 28.183 9.52283 35.571 18.6365 35.571Z" stroke="#F9FAFC" stroke-width="1.5677" stroke-linecap="round" stroke-linejoin="round"/>
<path d="M27.6103 24.2531C26.7005 25.8278 25.3922 27.1352 23.8171 28.044C22.2419 28.9529 20.4552 29.4312 18.6366 29.4308C16.8181 29.4305 15.0316 28.9515 13.4568 28.042C11.882 27.1325 10.5743 25.8245 9.66506 24.2495C8.75587 22.6745 8.27721 20.888 8.2772 19.0694C8.27718 17.2508 8.7558 15.4642 9.66497 13.8892C10.5741 12.3142 11.8818 11.0062 13.4566 10.0967C15.0314 9.18719 16.8179 8.70816 18.6364 8.70776M9.66413 24.2462L4.34521 27.3171" stroke="#F9FAFC" stroke-width="1.5677" stroke-linecap="round" stroke-linejoin="round"/>
<path d="M32.9255 27.3217L18.6389 19.0739V2.56836" stroke="#F9FAFC" stroke-width="1.5677" stroke-linecap="round" stroke-linejoin="round"/>
</svg>
