<svg width="34" height="34" viewBox="0 0 34 34" fill="none" xmlns="http://www.w3.org/2000/svg">
<g clip-path="url(#clip0_123_1465)">
<path fill-rule="evenodd" clip-rule="evenodd" d="M14.5451 0.896545C12.3649 0.896829 10.2161 1.41516 8.27553 2.40883C6.335 3.4025 4.65836 4.84306 3.38378 6.61181C2.1092 8.38056 1.27316 10.4269 0.944554 12.5821C0.615945 14.7373 0.804174 16.9398 1.49373 19.008C2.18329 21.0763 3.35443 22.951 4.91066 24.4778C6.46689 26.0047 8.36365 27.1398 10.4446 27.7898C12.5256 28.4398 14.7313 28.586 16.8799 28.2163C19.0285 27.8467 21.0584 26.9717 22.8026 25.6636C22.9063 25.9678 23.0781 26.2523 23.3214 26.4939L30.1923 33.3647C30.6005 33.7603 31.148 33.9794 31.7165 33.9747C32.285 33.9701 32.8288 33.742 33.2306 33.3398C33.6323 32.9376 33.8597 32.3935 33.8637 31.825C33.8677 31.2565 33.648 30.7093 33.2519 30.3014L26.3811 23.4306C26.1483 23.1969 25.8649 23.02 25.5527 22.9135C27.0864 20.8693 28.0204 18.4383 28.2502 15.8931C28.4799 13.3478 27.9963 10.7889 26.8535 8.50301C25.7107 6.21717 23.9538 4.29477 21.7798 2.95128C19.6059 1.60779 17.1007 0.896296 14.5451 0.896545ZM4.25675 14.656C4.25675 13.305 4.52287 11.9671 5.03991 10.7189C5.55694 9.47064 6.31477 8.33647 7.27013 7.38111C8.22549 6.42575 9.35967 5.66792 10.6079 5.15088C11.8561 4.63385 13.194 4.36773 14.5451 4.36773C15.8961 4.36773 17.234 4.63385 18.4822 5.15088C19.7305 5.66792 20.8646 6.42575 21.82 7.38111C22.7754 8.33647 23.5332 9.47064 24.0502 10.7189C24.5673 11.9671 24.8334 13.305 24.8334 14.656C24.8334 17.3847 23.7494 20.0016 21.82 21.931C19.8906 23.8604 17.2737 24.9444 14.5451 24.9444C11.8164 24.9444 9.19956 23.8604 7.27013 21.931C5.3407 20.0016 4.25675 17.3847 4.25675 14.656Z" fill="#83868B"/>
</g>
<defs>
<clipPath id="clip0_123_1465">
<rect width="33.0764" height="33.0783" fill="white" transform="translate(0.787354 0.896545)"/>
</clipPath>
</defs>
</svg>
